<svg width="1751" height="1654" xmlns="http://www.w3.org/2000/svg" xmlns:xlink="http://www.w3.org/1999/xlink" overflow="hidden"><defs><clipPath id="clip0"><rect x="1324" y="495" width="1751" height="1654"/></clipPath><clipPath id="clip1"><rect x="2422" y="1058" width="523" height="523"/></clipPath><clipPath id="clip2"><rect x="2422" y="1058" width="523" height="523"/></clipPath><clipPath id="clip3"><rect x="2422" y="1058" width="523" height="523"/></clipPath></defs><g clip-path="url(#clip0)" transform="translate(-1324 -495)"><path d="M1326 770.01C1326 618.126 1449.13 495 1601.01 495L2798.99 495C2950.87 495 3074 618.126 3074 770.01L3074 1870.02C3074 2021.9 2950.87 2145.03 2798.99 2145.03L1601.01 2145.03C1449.13 2145.03 1326 2021.9 1326 1870.02Z" fill="#4E97FE" fill-rule="evenodd" fill-opacity="1"/><g clip-path="url(#clip1)"><g clip-path="url(#clip2)"><g clip-path="url(#clip3)"><path d="M2905.51 1296.7 2487.11 1061.35C2479.01 1056.8 2469.12 1056.9 2461.12 1061.56 2453.07 1066.27 2448.15 1074.84 2448.15 1084.15L2448.15 1554.85C2448.15 1564.16 2453.07 1572.74 2461.12 1577.44 2465.2 1579.8 2469.75 1581 2474.3 1581 2478.69 1581 2483.14 1579.9 2487.11 1577.65L2905.51 1342.3C2913.72 1337.65 2918.85 1328.97 2918.85 1319.5 2918.85 1310.03 2913.72 1301.35 2905.51 1296.7Z" fill="#FFFFFF" fill-rule="nonzero" fill-opacity="1"/></g></g></g><path d="M1662 1140.58C1662 1084.48 1707.48 1039 1763.58 1039L2138.42 1039C2194.52 1039 2240 1084.48 2240 1140.58L2240 1382.42C2240 1438.52 2194.52 1484 2138.42 1484L1763.58 1484C1707.48 1484 1662 1438.52 1662 1382.42Z" fill="#FFFFFF" fill-rule="evenodd" fill-opacity="1"/><path d="M1995 1260.17C1995 1227.49 2021.49 1201 2054.17 1201L2290.83 1201C2323.51 1201 2350 1227.49 2350 1260.17L2350 1540.83C2350 1573.51 2323.51 1600 2290.83 1600L2054.17 1600C2021.49 1600 1995 1573.51 1995 1540.83Z" fill="#FFFFFF" fill-rule="evenodd" fill-opacity="1"/><path d="M1995 1216.5C1995 1118.47 2074.47 1039 2172.5 1039 2270.53 1039 2350 1118.47 2350 1216.5L2350 1265.5C2350 1363.53 2270.53 1443 2172.5 1443 2074.47 1443 1995 1363.53 1995 1265.5Z" fill="#FFFFFF" fill-rule="evenodd" fill-opacity="1"/><path d="M1662 1400.5C1662 1290.32 1751.32 1201 1861.5 1201L2040.5 1201C2150.68 1201 2240 1290.32 2240 1400.5L2240 1400.5C2240 1510.68 2150.68 1600 2040.5 1600L1861.5 1600C1751.32 1600 1662 1510.68 1662 1400.5Z" fill="#FFFFFF" fill-rule="evenodd" fill-opacity="1"/><rect x="0" y="0" width="66" height="210" fill="#4E97FE" fill-opacity="1" transform="matrix(-1 0 0 1 1995 1217)"/><rect x="0" y="0" width="66" height="210" fill="#4E97FE" fill-opacity="1" transform="matrix(-1 0 0 1 2100 1217)"/></g></svg>